<svg id="icons" xmlns="http://www.w3.org/2000/svg" xmlns:xlink="http://www.w3.org/1999/xlink" viewBox="0 0 128 128"><defs><style>.cls-1,.cls-2{fill-rule:evenodd;}.cls-1{fill:url(#linear-gradient);}.cls-2,.cls-6{fill:none;stroke:#3786a5;stroke-linecap:round;stroke-linejoin:round;stroke-width:2px;}.cls-2{opacity:0.24;}.cls-3{fill:#ace6ef;}.cls-4{fill:#6ecbe0;}.cls-5{fill:#fff;}</style><linearGradient id="linear-gradient" x1="45.41" y1="40.62" x2="91.73" y2="101" gradientTransform="translate(-7.81 8.91) rotate(-7.51)" gradientUnits="userSpaceOnUse"><stop offset="0" stop-color="#eef2f7"/><stop offset="1" stop-color="#cbeef7"/></linearGradient></defs><title>medical-records</title><path class="cls-1" d="M58.87,33c6.17-33.28,73.22-29.31,65-4.23-9,27.39,26.72,21.44-23,62-27.59,22.52-50.46,4.39-62.86,22C24,132.69-34.32,101.47,28.73,67.86,43.52,60,55.83,49.41,58.87,33Z"/><path class="cls-2" d="M96.56,19h0a45.21,45.21,0,0,0-10.37,1.28"/><path class="cls-2" d="M15.08,106.31A18.1,18.1,0,0,0,24.31,109h.2"/><path class="cls-2" d="M104.47,19.66h0a22,22,0,0,1,8.62,3.24"/><g id="_Group_" data-name="&lt;Group&gt;"><rect class="cls-3" x="77" y="81" width="30" height="16"/><polygon class="cls-4" points="76 63 76 71 68 71 68 79 60 79 60 71 52 71 52 63 60 63 60 55 68 55 68 63 76 63"/><path class="cls-5" d="M113,43V99a4,4,0,0,1-4,4H19a4,4,0,0,1-4-4V29a4,4,0,0,1,4-4H42c8.14,0,11.58,2.86,14.65,6,3.74,3.8,6.94,8,17.35,8h35A4,4,0,0,1,113,43Zm-6,54V81H77V97ZM76,71V63H68V55H60v8H52v8h8v8h8V71Z"/><path class="cls-3" d="M105,31v8H74c-10.41,0-13.61-4.2-17.35-8Z"/><path class="cls-6" d="M105,39h4a4,4,0,0,1,4,4V99a4,4,0,0,1-4,4H19a4,4,0,0,1-4-4V29a4,4,0,0,1,4-4H42c8.14,0,11.58,2.86,14.65,6"/><polygon class="cls-6" points="76 63 68 63 68 55 60 55 60 63 52 63 52 71 60 71 60 79 68 79 68 71 76 71 76 63"/><path class="cls-6" d="M56.65,31H105v8H74C63.59,39,60.39,34.8,56.65,31Z"/><rect class="cls-6" x="77" y="81" width="30" height="16"/><line class="cls-6" x1="83" y1="87" x2="101" y2="87"/><line class="cls-6" x1="83" y1="91" x2="95" y2="91"/></g></svg>